<svg width="226" height="217" xmlns="http://www.w3.org/2000/svg" xmlnsXlink="http://www.w3.org/1999/xlink" overflow="hidden"><defs><clipPath id="clip0"><rect x="487" y="319" width="226" height="217"/></clipPath><clipPath id="clip1"><rect x="487" y="320" width="225" height="215"/></clipPath><clipPath id="clip2"><rect x="487" y="320" width="225" height="215"/></clipPath><clipPath id="clip3"><rect x="487" y="320" width="1311" height="215"/></clipPath></defs><g clip-path="url(#clip0)" transform="translate(-487 -319)"><g clip-path="url(#clip1)"><g clip-path="url(#clip2)"><g clip-path="url(#clip3)"><path d="M834.777 1200.26C826.337 1200.26 817.9 1200.26 809.466 1200.26 808.411 1200.26 806.989 1200.68 806.989 1198.8 806.989 1196.92 808.448 1197.45 809.484 1197.37 810.52 1197.29 811.618 1197.43 812.669 1197.31 816.935 1197.26 820.545 1194.15 821.217 1189.93 821.538 1188 821.741 1186.05 821.826 1184.1 821.86 1159.93 821.86 1135.77 821.826 1111.61 821.826 1111.2 821.826 1110.79 821.8 1110.38 821.435 1102.59 818.688 1099.74 810.856 1099.1 810.041 1099.15 809.224 1099.11 808.419 1098.98 807.868 1098.81 807.102 1098.13 807.109 1097.69 807.109 1097.18 807.784 1096.51 808.327 1096.23 808.963 1096.07 809.624 1096.04 810.272 1096.14 822.395 1096.14 834.514 1095.98 846.637 1096.19 856.625 1096.04 866.599 1096.97 876.389 1098.96 886.203 1100.96 894.928 1106.52 900.879 1114.58 913.699 1132.38 915.107 1151.71 906.603 1171.53 901.1 1184.42 889.844 1193.97 876.224 1197.3 868.88 1199.31 861.294 1200.31 853.678 1200.27 847.385 1200.26 841.077 1200.26 834.777 1200.26ZM894.09 1147.27C894.421 1135.77 890.58 1124.53 883.276 1115.64 878.251 1109.75 871.513 1105.56 863.999 1103.68 855.825 1101.84 847.341 1101.9 839.191 1103.84 837.657 1103.89 836.451 1105.17 836.498 1106.7 836.503 1106.85 836.519 1107 836.546 1107.14 836.645 1116.31 836.586 1125.49 836.586 1134.67 836.586 1153.1 836.586 1171.53 836.586 1189.97 836.586 1191.53 836.586 1192.86 838.611 1193.25 846.913 1195.26 855.561 1195.36 863.908 1193.55 874.43 1190.81 883.288 1183.72 888.274 1174.05 892.497 1165.78 894.5 1156.54 894.09 1147.26Z" transform="matrix(1.00186 0 0 1 31.2652 -733.823)"/><path d="M1008.76 1149.89C1011.16 1153.24 1013.34 1156.37 1015.61 1159.44 1022.41 1168.64 1029.17 1177.88 1036.07 1187 1040.54 1192.78 1047.19 1196.46 1054.46 1197.19 1055.51 1197.34 1056.92 1197.38 1056.44 1198.89 1055.93 1199.67 1055.08 1200.15 1054.16 1200.2 1046.29 1200.3 1038.43 1200.31 1030.56 1200.2 1029.4 1200.08 1028.34 1199.51 1027.61 1198.6 1017.12 1184.29 1006.65 1169.97 996.364 1155.5 994.863 1152.87 991.968 1151.36 988.954 1151.63 982.632 1151.92 982.614 1151.71 982.621 1158.01 982.621 1166.76 982.621 1175.54 982.712 1184.3 982.738 1186.17 983.132 1188.03 983.281 1189.91 983.866 1194.32 987.742 1197.55 992.19 1197.33 993.493 1197.42 994.824 1197.24 996.108 1197.44 996.619 1197.51 997.465 1198.36 997.392 1198.69 997.261 1199.27 996.579 1199.78 996.068 1200.23 995.937 1200.36 995.598 1200.27 995.339 1200.27 981.991 1200.27 968.64 1200.27 955.285 1200.27 954.576 1200.32 953.87 1200.12 953.293 1199.71 952.421 1198.77 953.333 1197.52 954.858 1197.36 957.291 1197.25 959.71 1196.93 962.089 1196.41 964.807 1195.75 966.83 1193.47 967.171 1190.69 967.593 1188.28 967.849 1185.84 967.937 1183.39 967.971 1159.4 967.962 1135.4 967.911 1111.41 967.911 1111.16 967.911 1110.91 967.911 1110.68 967.638 1102.65 964.774 1099.66 956.762 1099.11 956.114 1099.17 955.459 1099.15 954.818 1099.03 954.199 1098.68 953.633 1098.25 953.14 1097.74 953.652 1097.16 954.246 1096.65 954.902 1096.24 955.54 1096.09 956.2 1096.07 956.846 1096.18 967.09 1096.18 977.335 1095.96 987.56 1096.24 995.568 1096.37 1003.56 1096.96 1011.5 1098.02 1020.93 1099.15 1029 1105.34 1032.51 1114.17 1036.82 1125.01 1032.88 1137.38 1023.09 1143.72 1019.43 1145.66 1015.65 1147.36 1011.76 1148.8 1010.88 1149.13 1009.98 1149.43 1008.76 1149.89ZM982.621 1125.17C982.621 1131.64 982.661 1138.1 982.588 1144.57 982.588 1146.26 983.106 1146.98 984.835 1146.83 988.969 1146.47 993.153 1146.39 997.239 1145.78 1009.3 1144.5 1018.03 1133.69 1016.75 1121.63 1016.74 1121.52 1016.73 1121.4 1016.71 1121.29 1016.27 1114.19 1012.05 1107.87 1005.66 1104.74 998.936 1101.31 991.88 1102.15 984.795 1103.26 983.04 1103.53 982.548 1104.32 982.573 1106.03 982.676 1112.41 982.617 1118.79 982.617 1125.17Z" transform="matrix(1.00186 0 0 1 215.123 -737.096)"/><path d="M1202.19 1124.43C1204.51 1122.18 1206.76 1119.86 1209.16 1117.69 1213.67 1113.19 1219.73 1110.6 1226.1 1110.44 1234.01 1110.19 1241.04 1115.44 1243.04 1123.1 1243.18 1123.54 1243.34 1123.99 1243.66 1124.92 1244.91 1123.65 1245.93 1122.66 1246.9 1121.61 1250.72 1116.99 1255.72 1113.48 1261.37 1111.44 1270.75 1107.85 1281.27 1112.55 1284.86 1121.93 1285.56 1123.77 1285.96 1125.7 1286.05 1127.67 1286.48 1132.23 1286.62 1136.82 1286.69 1141.4 1286.84 1151.64 1286.95 1161.88 1286.89 1172.12 1286.91 1176.3 1290.31 1179.67 1294.49 1179.64 1294.52 1179.64 1294.54 1179.64 1294.57 1179.64 1294.98 1179.67 1295.51 1179.53 1295.77 1179.73 1296.26 1180.13 1296.92 1180.72 1296.91 1181.23 1296.91 1181.68 1296.13 1182.17 1295.61 1182.54 1295.4 1182.69 1294.98 1182.57 1294.65 1182.57 1284.74 1182.57 1274.83 1182.57 1264.91 1182.57 1263.96 1182.57 1262.4 1183 1262.72 1181.28 1262.83 1180.64 1264.09 1180.03 1264.94 1179.75 1266.24 1179.34 1267.66 1179.34 1268.99 1178.97 1271.73 1178.29 1273.64 1175.82 1273.6 1173 1273.8 1170.06 1273.88 1167.11 1273.85 1164.16 1273.77 1153.11 1273.68 1142.06 1273.49 1131 1273.3 1121.09 1265.39 1117.62 1256.68 1120.5 1252.22 1122.18 1248.23 1124.9 1245.03 1128.44 1244.43 1129.18 1244.11 1130.1 1244.13 1131.06 1244.1 1143.92 1244.15 1156.77 1244.19 1169.64 1244.19 1170.53 1244.22 1171.44 1244.3 1172.34 1244.3 1176.32 1247.5 1179.57 1251.49 1179.63 1252.47 1179.63 1253.45 1179.74 1254.41 1179.95 1254.98 1180.3 1255.37 1180.86 1255.5 1181.52 1255.55 1181.76 1254.72 1182.32 1254.2 1182.53 1253.72 1182.64 1253.22 1182.66 1252.74 1182.59 1242.82 1182.59 1232.91 1182.59 1223 1182.59 1222.52 1182.67 1222.02 1182.66 1221.54 1182.54 1221.01 1182.19 1220.52 1181.79 1220.08 1181.32 1220.54 1180.84 1220.91 1180.07 1221.46 1179.92 1223.11 1179.5 1224.86 1179.46 1226.5 1178.99 1229.41 1178.27 1231.42 1175.61 1231.33 1172.61 1231.46 1159.11 1231.56 1145.58 1231.26 1132.07 1231.68 1126.43 1228.08 1121.27 1222.64 1119.71 1219.02 1118.75 1215.16 1119.34 1211.98 1121.34 1208.7 1123.32 1205.59 1125.55 1202.67 1128.02 1201.87 1128.81 1201.43 1129.89 1201.42 1131 1201.38 1143.46 1201.46 1155.91 1201.51 1168.35 1201.53 1169.41 1201.59 1170.48 1201.71 1171.54 1202.4 1177.55 1204.23 1179.29 1210.26 1179.76 1210.75 1179.8 1211.35 1179.66 1211.72 1179.91 1212.25 1180.28 1212.64 1180.83 1212.81 1181.45 1212.86 1181.77 1212.11 1182.29 1211.63 1182.55 1211.32 1182.72 1210.83 1182.59 1210.42 1182.59 1200.59 1182.59 1190.76 1182.59 1180.93 1182.59 1179.92 1182.59 1178.38 1183.12 1178.38 1181.22 1178.41 1179.52 1179.8 1179.74 1180.93 1179.69 1184.86 1179.97 1188.28 1177.01 1188.56 1173.08 1188.58 1172.87 1188.58 1172.65 1188.58 1172.43 1188.86 1168.27 1188.87 1164.09 1188.85 1159.91 1188.81 1149.6 1188.71 1139.27 1188.61 1128.95 1188.61 1127.97 1188.54 1127 1188.39 1126.03 1187.61 1121.25 1185.63 1119.93 1180.88 1120.97 1180.47 1121.05 1180.02 1121.3 1179.68 1121.19 1179.01 1120.98 1178.02 1120.69 1177.86 1120.21 1177.8 1119.48 1178.13 1118.78 1178.73 1118.36 1185.05 1115.69 1191.38 1113.04 1197.79 1110.59 1200.52 1109.54 1201.35 1110.29 1201.36 1113.14 1201.36 1116.79 1201.36 1120.44 1201.36 1124.09Z" transform="matrix(1.00186 0 0 1 498.323 -716.159)"/><path d="M1110.39 1195.83C1109.54 1196.52 1108.9 1196.97 1108.33 1197.5 1102.62 1203.35 1094.42 1206.07 1086.35 1204.8 1079.57 1203.68 1073.49 1199.95 1069.42 1194.42 1063.41 1186.62 1060.73 1176.76 1061.96 1166.99 1062.65 1157.37 1066.51 1148.25 1072.95 1141.06 1080.16 1132.11 1092.12 1128.49 1103.08 1131.94 1104.92 1132.61 1106.67 1133.48 1108.31 1134.54 1108.99 1134.9 1109.63 1135.34 1110.35 1135.78 1110.6 1135.28 1110.79 1135.07 1110.79 1134.87 1110.62 1126.36 1110.65 1117.85 1110.16 1109.36 1109.9 1104.94 1107.92 1103.82 1103.49 1104.43 1102.92 1104.51 1102.33 1104.83 1101.82 1104.72 1101.06 1104.5 1100.33 1104.2 1099.63 1103.83 1100.06 1103.17 1100.34 1102.19 1100.94 1101.91 1104.22 1100.43 1107.56 1099.12 1110.9 1097.75 1113.61 1096.66 1116.32 1095.5 1119.07 1094.45 1122.5 1093.16 1123.56 1093.9 1123.56 1097.49 1123.56 1120.84 1123.56 1144.19 1123.56 1167.54 1123.56 1174.01 1123.68 1180.48 1123.76 1186.95 1123.75 1188.02 1123.85 1189.08 1124.08 1190.12 1125.17 1194.6 1127.36 1195.83 1131.85 1194.56 1132.45 1194.31 1133.1 1194.2 1133.75 1194.23 1134.26 1194.41 1134.63 1194.85 1134.72 1195.38 1134.69 1196.05 1134.37 1196.66 1133.84 1197.07 1127.62 1199.75 1121.4 1202.45 1115.07 1204.87 1111.83 1206.11 1110.88 1205.19 1110.87 1201.69 1110.87 1200.13 1110.87 1198.58 1110.81 1197.03 1110.72 1196.61 1110.58 1196.21 1110.39 1195.83ZM1110.87 1171.02C1110.87 1165.7 1110.94 1160.38 1110.87 1155.06 1110.88 1149.95 1109.14 1144.99 1105.95 1141 1102.01 1136.16 1095.42 1134.37 1089.56 1136.54 1083.81 1139.11 1079.51 1144.14 1077.87 1150.23 1075.85 1156.64 1075.21 1163.42 1075.99 1170.1 1076.21 1177.85 1079.3 1185.26 1084.65 1190.88 1090.56 1197.75 1100.92 1198.53 1107.8 1192.62 1108.29 1192.19 1108.76 1191.74 1109.2 1191.26 1110.16 1190.22 1110.73 1188.88 1110.81 1187.46 1110.98 1181.97 1110.88 1176.49 1110.88 1171.01Z" transform="matrix(1.00186 0 0 1 352.196 -736.578)"/><path d="M942.195 1178.51C942.056 1179.66 941.907 1180.3 941.907 1180.93 941.907 1188.54 941.907 1196.16 942.024 1203.78 942.129 1210.12 944.074 1212.17 950.374 1213.01 951.025 1212.99 951.675 1213.06 952.308 1213.21 952.859 1213.47 953.577 1214.08 953.592 1214.56 953.607 1215.04 952.899 1215.68 952.366 1215.97 951.813 1216.12 951.235 1216.15 950.67 1216.06L920.211 1216.06C919.725 1216.14 919.228 1216.12 918.752 1215.99 918.136 1215.59 917.562 1215.14 917.037 1214.63 917.581 1214.14 918.051 1213.37 918.675 1213.21 920.917 1212.88 923.128 1212.37 925.286 1211.68 926.745 1210.87 927.843 1209.54 928.357 1207.96 928.975 1205.58 929.255 1203.12 929.189 1200.66 929.238 1177.64 929.238 1154.63 929.189 1131.62 929.196 1129.42 928.992 1127.22 928.58 1125.05 928.266 1122.28 925.766 1120.29 922.995 1120.61 922.911 1120.61 922.826 1120.63 922.743 1120.64 921.944 1120.8 921.134 1120.91 920.32 1120.94 919.412 1120.75 918.529 1120.45 917.686 1120.06 918.336 1119.46 918.879 1118.6 919.653 1118.28 923.859 1116.5 928.117 1114.84 932.367 1113.14 934.41 1112.31 936.42 1111.39 938.503 1110.68 940.958 1109.84 941.845 1110.51 941.856 1113.06 941.881 1117.22 941.856 1121.37 941.856 1125.52L942.498 1125.75C942.943 1125.06 943.381 1124.37 943.833 1123.7 946.995 1117.99 952.065 1113.58 958.152 1111.24 967.358 1108.41 977.338 1111.82 982.898 1119.68 988.531 1127.53 991.224 1137.11 990.508 1146.75 990.443 1156.23 987.286 1165.44 981.515 1172.97 975.968 1180.59 966.969 1184.91 957.554 1184.49 951.855 1184.55 946.353 1182.41 942.195 1178.51ZM941.899 1149.11 942.056 1149.11C942.056 1154.43 941.932 1159.75 942.089 1165.08 942.001 1171.02 945.675 1176.37 951.253 1178.42 957.096 1181.32 964.124 1180.27 968.867 1175.8 973.267 1171.42 975.952 1165.61 976.434 1159.43 977.849 1148.38 977.163 1137.65 970.531 1128.14 967.429 1123.11 961.522 1120.54 955.726 1121.7 949.681 1122.65 946.142 1126.98 942.396 1131.06 941.974 1131.84 941.807 1132.73 941.918 1133.61 941.874 1138.78 941.896 1143.94 941.896 1149.11Z" transform="matrix(1.00186 0 0 1 169.874 -715.994)"/><path d="M1095.19 1169.31C1094.76 1170.75 1094.74 1172.6 1093.81 1173.55 1090.79 1176.61 1087.57 1179.47 1084.18 1182.11 1082.79 1182.97 1081.2 1183.46 1079.56 1183.5 1075.44 1184.28 1071.47 1181.57 1070.69 1177.45 1070.62 1177.07 1070.58 1176.7 1070.56 1176.32 1070.41 1175.29 1070.33 1174.26 1070.15 1172.71 1068.77 1173.64 1067.72 1174.33 1066.69 1175.05 1062.88 1178.4 1058.52 1181.06 1053.81 1182.93 1041.3 1186.44 1032.21 1178.83 1031.34 1167.97 1030.7 1160.34 1034.54 1153.03 1041.19 1149.23 1048.93 1144.49 1057.16 1140.61 1065.74 1137.66 1066.69 1137.41 1067.6 1137.04 1068.45 1136.56 1069.24 1135.93 1070.3 1134.88 1070.23 1134.08 1069.98 1130.26 1069.49 1126.46 1068.77 1122.7 1067.99 1119.26 1065.37 1116.53 1061.95 1115.62 1057.07 1113.72 1051.51 1115.23 1048.25 1119.33 1047.38 1121.04 1046.86 1122.9 1046.73 1124.81 1046.42 1126.63 1046.66 1128.58 1046.29 1130.39 1045.79 1133.35 1043.08 1135.41 1040.09 1135.11 1037.19 1135.05 1034.75 1132.91 1034.31 1130.04 1033.12 1123.42 1036.55 1118.96 1041.4 1115.24 1044.85 1112.71 1048.92 1111.14 1053.17 1110.71 1059.74 1109.53 1066.5 1110.13 1072.76 1112.46 1078.22 1114.25 1082.02 1119.22 1082.33 1124.96 1082.74 1134.37 1082.84 1143.78 1083.02 1153.18 1083.12 1158.18 1083.06 1163.18 1083.15 1168.17 1083.19 1170.19 1083.1 1172.52 1085.25 1173.56 1087.61 1174.71 1089.47 1173.28 1091.16 1171.72 1092.16 1170.78 1093.22 1169.89 1094.26 1168.97ZM1070.08 1140.86C1068.26 1141.53 1066.86 1141.95 1065.53 1142.53 1059.41 1144.58 1053.72 1147.75 1048.75 1151.88 1045.22 1155.08 1043.53 1159.84 1044.23 1164.55 1045.21 1171.34 1051.21 1177.45 1059.57 1173.83 1062.74 1172.36 1065.76 1170.57 1068.57 1168.49 1069.57 1167.62 1070.18 1166.38 1070.25 1165.06 1070.4 1157.86 1070.32 1150.67 1070.31 1143.47 1070.29 1142.76 1070.17 1142.06 1070.06 1140.86Z" transform="matrix(1.00186 0 0 1 313.727 -716.045)"/><path d="M1177.8 1184.58C1164.93 1184.96 1153.23 1177.15 1148.64 1165.13 1141.84 1150.93 1143.95 1134.07 1154.04 1121.98 1166.58 1105.49 1193.01 1106.72 1205.15 1123.48 1217.11 1139.96 1212.85 1163.97 1199.96 1176.22 1193.86 1181.65 1185.97 1184.62 1177.8 1184.58ZM1198.68 1151.43 1198.04 1151.33C1198.46 1141.62 1195.97 1132.01 1190.9 1123.72 1187.83 1118.1 1181.74 1114.8 1175.34 1115.29 1169.11 1115.69 1163.72 1119.79 1161.66 1125.69 1156.55 1141.12 1158.69 1158.04 1167.5 1171.7 1171.17 1177.39 1178.03 1180.15 1184.61 1178.58 1190.43 1177.46 1194.97 1172.89 1196.07 1167.06 1197.3 1161.92 1197.84 1156.64 1198.68 1151.42Z" transform="matrix(1.00186 0 0 1 456.594 -716.016)"/><path d="M869.607 1138.76C868.775 1152.89 875.199 1167.62 889.748 1171.37 898.412 1174.19 907.849 1170.38 912.13 1162.34 913.053 1160.8 913.662 1159.08 914.585 1157.55 914.95 1156.93 915.789 1156.57 916.409 1156.1 916.774 1156.91 917.602 1157.9 917.391 1158.49 916.022 1162.83 914.273 1167.03 912.163 1171.05 908.782 1177.34 902.922 1181.93 896.005 1183.7 887.322 1186.09 878.021 1184.02 871.161 1178.19 861.741 1170.39 858.447 1159.9 858.512 1148.08 858.325 1140.6 859.995 1133.2 863.372 1126.53 871.257 1111.59 889.756 1105.88 904.691 1113.76 905.052 1113.95 905.41 1114.15 905.764 1114.36 912.58 1118.58 916.93 1125.85 917.438 1133.85 917.989 1138.83 918.898 1138.64 913.246 1138.64 899.568 1138.64 885.893 1138.64 872.222 1138.64 871.336 1138.64 870.464 1138.72 869.607 1138.76ZM885.334 1134.23 896.862 1134.23C902.01 1134.23 902.01 1134.23 901.39 1129.13 900.418 1120.85 892.923 1114.93 884.649 1115.9 882.444 1116.16 880.324 1116.9 878.439 1118.08 874.1 1120.8 871.081 1125.19 870.099 1130.22 869.161 1134.23 869.161 1134.23 873.335 1134.23Z" transform="matrix(1.00186 0 0 1 96.1525 -716.078)"/><path d="M1011.71 1138.61C1010.98 1152.84 1017.18 1167.36 1031.69 1171.3 1040.32 1174.18 1049.78 1170.47 1054.16 1162.5 1055.18 1160.83 1055.86 1158.96 1056.85 1157.28 1057.17 1156.73 1057.97 1156.48 1058.55 1156.09 1058.92 1156.82 1059.71 1157.65 1059.58 1158.25 1059.04 1160.88 1058.24 1163.46 1057.18 1165.93 1054.21 1173.48 1048.36 1179.54 1040.92 1182.78 1029.62 1187 1016.89 1183.57 1009.23 1174.25 1004.08 1168.03 1001.11 1160.3 1000.78 1152.23 999.948 1143.56 1001.5 1134.82 1005.27 1126.96 1012.96 1111.86 1031.42 1105.86 1046.52 1113.54 1046.54 1113.55 1046.57 1113.57 1046.6 1113.58 1053.34 1117.23 1058 1123.81 1059.19 1131.38 1059.47 1132.74 1059.59 1134.14 1059.74 1135.52 1060.07 1138.54 1060.02 1138.61 1057.04 1138.61 1042.96 1138.61 1028.87 1138.61 1014.79 1138.61ZM1027.51 1134.21 1039.04 1134.21C1044.15 1134.21 1044.15 1134.21 1043.52 1129.06 1042.54 1120.79 1035.04 1114.89 1026.77 1115.88 1024.64 1116.13 1022.59 1116.84 1020.75 1117.95 1016.01 1120.98 1012.77 1125.89 1011.86 1131.45 1011.37 1133.55 1011.86 1134.29 1014.02 1134.26 1018.52 1134.17 1023.01 1134.23 1027.51 1134.23Z" transform="matrix(1.00186 0 0 1 275.185 -716.067)"/><path d="M900.277 1138.63C899.453 1153 905.924 1167.64 920.426 1171.38 929.094 1174.19 938.529 1170.37 942.801 1162.32 943.764 1160.72 944.424 1158.93 945.376 1157.33 945.705 1156.78 946.496 1156.5 947.08 1156.11 947.445 1156.84 948.258 1157.67 948.109 1158.26 947.576 1160.9 946.773 1163.48 945.712 1165.95 942.754 1173.51 936.903 1179.57 929.455 1182.8 918.067 1187.05 905.236 1183.54 897.596 1174.09 891.93 1167 888.95 1158.13 889.179 1149.06 888.854 1141.26 890.523 1133.5 894.028 1126.52 901.915 1111.59 920.417 1105.88 935.353 1113.76 935.712 1113.95 936.068 1114.15 936.42 1114.35 943.296 1118.64 947.66 1126 948.12 1134.09 948.598 1138.64 949.553 1138.64 944.132 1138.64 930.454 1138.62 916.777 1138.62 903.101 1138.64ZM916.067 1134.23 927.588 1134.23C932.604 1134.23 932.604 1134.23 932.068 1129.28 931.197 1121 923.777 1114.99 915.496 1115.86 913.2 1116.1 910.99 1116.87 909.036 1118.1 904.345 1121.2 901.182 1126.15 900.324 1131.71 899.898 1133.6 900.456 1134.26 902.335 1134.26 906.92 1134.19 911.499 1134.23 916.067 1134.23Z" transform="matrix(1.00186 0 0 1 134.789 -716.078)"/><path d="M1113.64 1144.62C1113.93 1136.03 1117.17 1127.79 1122.82 1121.31 1132.56 1109.95 1148.95 1107 1162.04 1114.26 1165.75 1116.42 1168.62 1119.78 1170.19 1123.78 1171.81 1127.1 1170.43 1131.11 1167.11 1132.73 1166.94 1132.81 1166.77 1132.88 1166.6 1132.95 1162.46 1134.63 1157.74 1132.69 1155.98 1128.59 1155.59 1127.52 1155.34 1126.4 1155.21 1125.26 1154.54 1117.25 1149.15 1114.59 1141.99 1115.57 1134.15 1116.63 1130.05 1122.18 1127.95 1129.03 1123.73 1141.38 1126.03 1155.02 1134.07 1165.31 1140.72 1173.68 1152.9 1175.08 1161.27 1168.42 1162.62 1167.35 1163.82 1166.1 1164.84 1164.71 1166.69 1162.16 1168.04 1159.21 1169.75 1156.53 1170.11 1155.94 1171.02 1155.69 1171.68 1155.28 1171.92 1155.98 1172.48 1156.74 1172.34 1157.37 1170.65 1166.13 1165.83 1173.97 1158.78 1179.43 1149.13 1186.47 1135.95 1186.11 1126.71 1178.54 1119.12 1172.24 1114.52 1163.04 1114.05 1153.18 1113.83 1150.34 1113.77 1147.48 1113.64 1144.62Z" transform="matrix(1.00186 0 0 1 417.493 -716.016)"/><path d="M16.6213 8.31063C16.6213 12.9005 12.9005 16.6213 8.31063 16.6213 3.7208 16.6213 4.24463e-07 12.9005 4.24463e-07 8.31063 4.24463e-07 3.7208 3.7208 4.24463e-07 8.31063 4.24463e-07 12.9005 4.24463e-07 16.6213 3.7208 16.6213 8.31063Z" fill="#EE8336" transform="matrix(1.00186 0 0 1 1504.98 455.677)"/><path d="M1110.24 1137C1105.07 1137.19 1101.04 1141.52 1101.23 1146.69 1101.41 1151.85 1105.75 1155.88 1110.91 1155.69 1115.95 1155.51 1119.93 1151.38 1119.93 1146.35 1119.84 1141.09 1115.5 1136.91 1110.25 1137 1110.24 1137 1110.24 1137 1110.24 1137ZM1110.24 1152.69C1106.72 1152.56 1103.98 1149.61 1104.1 1146.09 1104.23 1142.58 1107.18 1139.84 1110.7 1139.96 1114.12 1140.09 1116.84 1142.9 1116.83 1146.33 1116.77 1149.91 1113.82 1152.76 1110.24 1152.7 1110.24 1152.7 1110.24 1152.7 1110.24 1152.7Z" transform="matrix(1.00186 0 0 1 401.009 -682.354)"/><path d="M680.326 1091.55C679.702 1090.97 679.126 1090.45 678.59 1089.96L678.59 1070.07 740.285 1070.07C739.69 1070.63 739.099 1071.21 738.497 1071.82 723.744 1086.74 707.327 1116.83 707.327 1116.83 704.769 1113.87 688.848 1099.31 680.326 1091.55Z" fill="#FF6600" transform="matrix(1.00186 0 0 1 -124.284 -739.088)"/><path d="M835.645 1141.06 746.33 1187.56 657.043 1141.06 700.355 1141.06 700.355 1133.76 702.091 1134.34 738.092 1146.1C743.984 1156.41 761.171 1145.47 761.171 1145.47L761.368 1139.69 790.601 1121.29 792.345 1120.2 792.345 1141.09Z" fill="#FF6600" transform="matrix(1.00186 0 0 1 -146.075 -688.56)"/><path d="M0 0 186.019 0 186.019 24.4138-5.7894e-06 24.4138Z" fill="#FF6600" transform="matrix(1.00186 0 0 1 506.218 508.452)"/><path d="M788.456 1090.2C799.499 1080.06 812.979 1069.64 820.137 1069.36L820.137 1072.84 769.142 1111.67C774.944 1103.96 781.407 1096.78 788.456 1090.2ZM837.302 1084.11 834.748 1082.57 844.642 1148 774.673 1192.67 771.119 1117.3C782.757 1108.91 832.814 1070.45 832.814 1070.45L833.482 1073.12 836.619 1073.32 834.066 1066.26C834.066 1066.26 811.016 1084.25 802.64 1090.82 794.264 1097.4 767.227 1116.91 767.227 1116.91L767.314 1115.59C767.314 1115.59 808.539 1084.34 815.883 1078.54 818.356 1076.24 821.104 1074.26 824.062 1072.64L824.354 1071.4 821.68 1071.77 822.158 1066.63C822.158 1066.63 814.639 1069.11 804.282 1073.49 793.924 1077.87 768.281 1108.15 763.535 1114.99 758.788 1121.83 746.487 1126.03 744.765 1126.23 743.043 1126.43 740.102 1122.9 740.102 1122.9L740.467 1125.76 735.133 1126.04 735.425 1126.81 732.853 1127.17 732.853 1128.7C736.31 1129.36 739.816 1129.74 743.335 1129.84 753.914 1129.84 768.179 1119.83 768.179 1119.83L771.696 1199.06C768.492 1202.22 764.196 1204.02 759.697 1204.1 758.144 1204.09 756.603 1203.83 755.129 1203.34L728.862 1128.79 732 1126.79 728.388 1126.31C728.388 1126.31 656.215 1094.31 654.117 1093.65 652.663 1093.24 651.149 1093.08 649.641 1093.18L725.502 1126.91 748.821 1199.43 665.573 1169.46 645.219 1091.02 644.515 1095.12 662.88 1171.01 750.241 1201.68C752.955 1204.16 756.615 1205.35 760.273 1204.93 765.398 1204.65 770.319 1202.83 774.395 1199.71L774.395 1195.04 847.619 1148.54ZM748.533 1127.13C753.772 1124.85 763.681 1118.85 763.681 1118.85 764.779 1122.65 748.537 1127.13 748.537 1127.13Z" transform="matrix(1.00186 0 0 1 -158.718 -742.94)"/><path d="M741.609 1076.15 740.245 1071.07 738.88 1072.44Z" transform="matrix(1.00186 0 0 1 -63.3408 -738.092)"/><path d="M700.68 1096.14C712.223 1102.1 735.816 1116.9 737.279 1117.82 736.428 1117.13 727.793 1110.35 706.389 1096.85 693.612 1088.58 679.667 1082.28 665.018 1078.15 673.643 1076.8 696.218 1089.09 710.942 1097.44 725.666 1105.78 740.208 1115.64 740.208 1115.64 740.208 1115.64 735.363 1108.19 713.656 1090.36 691.949 1072.52 681.884 1073.98 681.884 1073.98 702.288 1081.9 728.34 1105.39 729.139 1106.13 728.774 1105.92 723.849 1102.9 710.267 1094.33 698.067 1087.34 685.337 1081.31 672.194 1076.31L671.512 1072.73C673.9 1072.55 676.299 1072.58 678.681 1072.82L678.776 1071.57C675.656 1071.19 672.502 1071.19 669.382 1071.57L669.768 1076.31C666.703 1075.66 663.534 1075.66 660.469 1076.31L660.374 1077.57C658.639 1077.32 656.878 1077.32 655.143 1077.57L656.678 1082.79C654.571 1081.67 652.172 1081.23 649.805 1081.53 646.124 1082.11 647.481 1084.72 647.481 1084.72 647.481 1084.72 685.452 1101.59 702.704 1108.94 718.866 1115.85 730.818 1120.39 732.255 1120.93 722.675 1115.76 713.362 1110.11 704.353 1104 689.872 1095.1 674.518 1087.7 658.532 1081.91L657.375 1078.91C657.375 1078.91 658.247 1079 661.531 1079.58 666.478 1080.39 688.765 1089.97 700.68 1096.14ZM702.11 1105.75C690.552 1102.94 650.779 1083.96 650.779 1083.96 664.894 1082.64 701.015 1105.06 702.11 1105.75Z" transform="matrix(1.00186 0 0 1 -155.966 -737.895)"/><path d="M693.525 1121.92C697.543 1110.43 703.472 1099.7 711.062 1090.18 716.442 1083.01 722.58 1076.44 729.369 1070.59L729.369 1072.9C729.369 1072.9 707.374 1093.83 702.92 1108.55 702.92 1108.55 724.721 1079.2 747.001 1068.25L748.555 1065.73C748.555 1065.73 756.982 1063.5 758.529 1067.09L764.443 1066.7 764.443 1071.44 763.279 1071.93 762.893 1068.25C762.893 1068.25 752.426 1068.29 738.085 1082.22 723.744 1096.14 700.782 1121.34 700.782 1121.34 700.782 1121.34 705.721 1109.71 725.203 1091.74 744.684 1073.77 753.976 1068.54 753.976 1068.54 753.976 1068.54 751.941 1066.89 747.483 1069.9 727.732 1085.31 709.648 1102.75 693.525 1121.92Z" transform="matrix(1.00186 0 0 1 -109.193 -744.169)"/><path d="M713.383 1069.04C717.141 1067.23 721.095 1065.86 725.166 1064.95 720.8 1064.22 716.362 1065.76 713.383 1069.04Z" transform="matrix(1.00186 0 0 1 -89.1122 -744.418)"/><path d="M797.656 1190.72 797.656 1170.48 795.913 1171.57 794.169 1172.67 794.169 1194.19 832.11 1194.19 749.923 1236.99 667.751 1194.19 705.67 1194.19 705.67 1185.71 703.934 1185.13 702.19 1184.56 702.19 1190.7 653.483 1190.7 749.11 1240.49 749.909 1240.91 846.349 1190.7ZM705.659 1092.43 705.659 1072.7 763.827 1072.7C764.429 1072.09 765.02 1071.52 765.614 1070.96 766.282 1070.34 766.935 1069.76 767.577 1069.21L702.175 1069.21 702.175 1089.28C702.675 1089.74 703.27 1090.27 703.919 1090.86 704.47 1091.34 705.036 1091.86 705.656 1092.43Z" transform="matrix(1.00186 0 0 1 -149.657 -739.963)"/><path d="M842.708 1185.45 653.198 1185.45 653.198 1157.55 842.708 1157.55ZM656.678 1181.97 839.21 1181.97 839.21 1161.04 656.678 1161.04Z" transform="matrix(1.00186 0 0 1 -149.946 -650.841)"/></g></g></g></g></svg>